<svg width="512" height="512" viewBox="0 0 512 512" fill="none" xmlns="http://www.w3.org/2000/svg">
  <rect width="512" height="512" rx="112" fill="#F3EAF7"/>
  <rect x="20" y="20" width="472" height="472" rx="96" fill="url(#bg)"/>
  <path d="M155 184C149 136 159 129 169 139L206 183" stroke="#DEB193" stroke-width="12" stroke-linecap="round" stroke-linejoin="round"/>
  <path d="M307 183L344 139C354 129 364 136 358 184" stroke="#DEB193" stroke-width="12" stroke-linecap="round" stroke-linejoin="round"/>
  <path d="M160 188C156 144 165 138 173 147L209 190" stroke="#2F2529" stroke-width="10" stroke-linecap="round" stroke-linejoin="round"/>
  <path d="M303 190L339 147C347 138 356 144 352 188" stroke="#2F2529" stroke-width="10" stroke-linecap="round" stroke-linejoin="round"/>
  <path d="M210 185C238 178 272 177 301 179" stroke="#DEB193" stroke-width="10" stroke-linecap="round"/>
  <path d="M214 191C241 185 272 185 298 187" stroke="#2F2529" stroke-width="8" stroke-linecap="round"/>
  <path d="M95 255C69 250 49 251 28 261" stroke="#DEB193" stroke-width="8" stroke-linecap="round"/>
  <path d="M102 269C78 263 57 264 35 274" stroke="#DEB193" stroke-width="8" stroke-linecap="round"/>
  <path d="M108 283C85 278 65 279 45 287" stroke="#DEB193" stroke-width="8" stroke-linecap="round"/>
  <path d="M417 255C443 250 463 251 484 261" stroke="#DEB193" stroke-width="8" stroke-linecap="round"/>
  <path d="M410 269C434 263 455 264 477 274" stroke="#DEB193" stroke-width="8" stroke-linecap="round"/>
  <path d="M404 283C427 278 447 279 467 287" stroke="#DEB193" stroke-width="8" stroke-linecap="round"/>
  <path d="M93 251C67 246 47 247 26 257" stroke="#2F2529" stroke-width="5" stroke-linecap="round"/>
  <path d="M100 265C76 259 55 260 33 270" stroke="#2F2529" stroke-width="5" stroke-linecap="round"/>
  <path d="M106 279C83 274 63 275 43 283" stroke="#2F2529" stroke-width="5" stroke-linecap="round"/>
  <path d="M419 251C445 246 465 247 486 257" stroke="#2F2529" stroke-width="5" stroke-linecap="round"/>
  <path d="M412 265C436 259 457 260 479 270" stroke="#2F2529" stroke-width="5" stroke-linecap="round"/>
  <path d="M406 279C429 274 449 275 469 283" stroke="#2F2529" stroke-width="5" stroke-linecap="round"/>
  <text x="256" y="220" text-anchor="middle" font-family="Manrope, 'Trebuchet MS', sans-serif" font-size="30" letter-spacing="1.8" fill="#2F2529" transform="rotate(-6 256 220)">PROJETO</text>
  <text x="256" y="288" text-anchor="middle" font-family="'Brush Script MT', 'Comic Sans MS', cursive" font-size="84" font-weight="700" fill="#DEB193">Gatolinos</text>
  <text x="252" y="283" text-anchor="middle" font-family="'Brush Script MT', 'Comic Sans MS', cursive" font-size="84" font-weight="700" fill="#111111">Gatolinos</text>
  <circle cx="155" cy="348" r="5" fill="#111111"/>
  <circle cx="179" cy="348" r="5" fill="#111111"/>
  <circle cx="333" cy="348" r="5" fill="#111111"/>
  <circle cx="357" cy="348" r="5" fill="#111111"/>
  <path d="M203 348H242" stroke="#DEB193" stroke-width="9" stroke-linecap="round"/>
  <path d="M270 348H309" stroke="#DEB193" stroke-width="9" stroke-linecap="round"/>
  <path d="M203 348H242" stroke="#111111" stroke-width="5" stroke-linecap="round"/>
  <path d="M270 348H309" stroke="#111111" stroke-width="5" stroke-linecap="round"/>
  <path d="M246 353C239 347 239 338 245 336C250 334 254 338 256 341C258 338 262 334 267 336C273 338 273 347 266 353L256 362L246 353Z" fill="#DEB193"/>
  <path d="M247 350C241 345 241 339 246 337C250 336 254 340 256 343C258 340 262 336 266 337C271 339 271 345 265 350L256 358L247 350Z" fill="#111111"/>
  <path d="M248 349C242 344 243 340 247 339C250 338 254 341 256 344C258 341 262 338 265 339C269 340 270 344 264 349L256 356L248 349Z" fill="#F6E7E5"/>
  <defs>
    <linearGradient id="bg" x1="18" y1="18" x2="494" y2="494" gradientUnits="userSpaceOnUse">
      <stop stop-color="#F5EDF8"/>
      <stop offset="1" stop-color="#EDE0F1"/>
    </linearGradient>
  </defs>
</svg>
